<svg xmlns="http://www.w3.org/2000/svg" width="400" height="525" fill="none" viewBox="0 0 400 525"><path fill="#43A047" d="M362.5 525H37.5C16.75 525 0 508.25 0 487.5V37.5C0 16.75 16.75 0 37.5 0H275L400 125V487.5C400 508.25 383.25 525 362.5 525Z"/><path fill="#C8E6C9" d="M400 125H275V0L400 125Z"/><path fill="#2E7D32" d="M275 125L400 250V125H275Z"/><path fill="#E8F5E9" d="M287.5 250H112.5H87.5V275V300V325V350V375V400V425H312.5V400V375V350V325V300V275V250H287.5ZM112.5 275H162.5V300H112.5V275ZM112.5 325H162.5V350H112.5V325ZM112.5 375H162.5V400H112.5V375ZM287.5 400H187.5V375H287.5V400ZM287.5 350H187.5V325H287.5V350ZM287.5 300H187.5V275H287.5V300Z"/></svg>