<svg xmlns="http://www.w3.org/2000/svg" width="400" height="248" fill="none" viewBox="0 0 400 248"><g clip-path="url(#clip0)"><path fill="#FF5F00" d="M254 220.8H146V26.4H254V220.8Z"/><path fill="#EB001B" d="M152.8 123.6C152.8 84.2 171.2 49 200 26.4C178.2 9.2 151.4 0 123.6 0C55.4 0 0 55.4 0 123.6C0 191.8 55.4 247.2 123.6 247.2C151.4 247.2 178.2 238 200 220.8C171.2 198.2 152.8 163 152.8 123.6Z"/><path fill="#F79E1B" d="M400 123.6C400 191.8 344.6 247.2 276.4 247.2C248.6 247.2 221.8 238 200 220.8C228.8 198.2 247.2 163 247.2 123.6C247.2 84.2 228.8 49 200 26.4C221.8 9.2 248.6 0 276.4 0C344.6 0 400 55.4 400 123.6Z"/></g><defs><clipPath id="clip0"><rect width="400" height="247.2" fill="#fff"/></clipPath></defs></svg>