<svg xmlns="http://www.w3.org/2000/svg" width="200" height="144" fill="none" viewBox="0 0 200 144"><path fill="#F8FAFD" d="M196 0H4C1.79086 0 0 1.79086 0 4V140C0 142.209 1.79086 144 4 144H196C198.209 144 200 142.209 200 140V4C200 1.79086 198.209 0 196 0Z"/><rect width="159" height="103" x="20.5" y="20.5" fill="#F8FAFD" stroke="#D9DDEA" rx="3.5"/><path stroke="#D9DDEA" d="M20.5 88.5H179.5V120C179.5 121.933 177.933 123.5 176 123.5H24C22.067 123.5 20.5 121.933 20.5 120V88.5Z"/><rect width="106" height="8" x="33" y="33" fill="#71869D" rx="4"/><rect width="106" height="8" x="33" y="103" fill="#D9DDEA" rx="4"/><rect width="134" height="8" x="33" y="51" fill="#D9DDEA" rx="4"/><rect width="134" height="8" x="33" y="69" fill="#D9DDEA" rx="4"/></svg>