<svg xmlns="http://www.w3.org/2000/svg" width="200" height="144" fill="none" viewBox="0 0 200 144"><g clip-path="url(#clip0)"><path fill="#F8FAFD" d="M196 0H4C1.79086 0 0 1.79086 0 4V140C0 142.209 1.79086 144 4 144H196C198.209 144 200 142.209 200 140V4C200 1.79086 198.209 0 196 0Z"/><g filter="url(#filter0_d)"><rect width="160" height="66" x="20" y="48" fill="#fff" rx="4"/></g><rect width="30" height="9" x="20" y="31" fill="#71869D" rx="2"/><rect width="30" height="9" x="66" y="31" fill="#D9DDEA" rx="2"/><rect width="30" height="9" x="112" y="31" fill="#D9DDEA" rx="2"/><rect width="60" height="6" x="33" y="67" fill="#D9DDEA" rx="3"/><rect width="60" height="6" x="33" y="78" fill="#D9DDEA" rx="3"/><rect width="60" height="6" x="33" y="90" fill="#D9DDEA" rx="3"/><rect width="60" height="6" x="107" y="66" fill="#D9DDEA" rx="3"/><rect width="60" height="6" x="107" y="78" fill="#D9DDEA" rx="3"/><rect width="60" height="6" x="107" y="90" fill="#D9DDEA" rx="3"/></g><defs><filter id="filter0_d" width="208" height="114" x="-4" y="29" color-interpolation-filters="sRGB" filterUnits="userSpaceOnUse"><feFlood flood-opacity="0" result="BackgroundImageFix"/><feColorMatrix in="SourceAlpha" type="matrix" values="0 0 0 0 0 0 0 0 0 0 0 0 0 0 0 0 0 0 127 0"/><feOffset dy="5"/><feGaussianBlur stdDeviation="12"/><feColorMatrix type="matrix" values="0 0 0 0 0.54902 0 0 0 0 0.596078 0 0 0 0 0.643137 0 0 0 0.125 0"/><feBlend in2="BackgroundImageFix" mode="normal" result="effect1_dropShadow"/><feBlend in="SourceGraphic" in2="effect1_dropShadow" mode="normal" result="shape"/></filter><clipPath id="clip0"><rect width="200" height="144" fill="#fff"/></clipPath></defs></svg>