<svg xmlns="http://www.w3.org/2000/svg" width="200" height="144" fill="none" viewBox="0 0 200 144"><path fill="#F8FAFD" d="M196 0H4C1.79086 0 0 1.79086 0 4V140C0 142.209 1.79086 144 4 144H196C198.209 144 200 142.209 200 140V4C200 1.79086 198.209 0 196 0Z"/><rect width="167.528" height="87.541" x="16.236" y="27.73" stroke="#E7EAF3" stroke-width="1.459" rx="5.106"/><path fill="#F8FAFD" stroke="#E7EAF3" stroke-width="1.459" d="M21.342 27.7295H178.658C181.478 27.7295 183.764 30.0156 183.764 32.8357V44.2959H16.2358V32.8357C16.2358 30.0156 18.5219 27.7295 21.342 27.7295Z"/><rect width="14.589" height="3.38" x="24.519" y="33.76" fill="#D9DDEA" rx="1.69"/><rect width="14.589" height="3.38" x="80.848" y="33.76" fill="#D9DDEA" rx="1.69"/><rect width="14.589" height="3.38" x="106.76" y="33.76" fill="#D9DDEA" rx="1.69"/><rect width="14.589" height="3.38" x="132.671" y="33.76" fill="#D9DDEA" rx="1.69"/><rect width="35.014" height="3.38" x="24.519" y="51.785" fill="#71869D" rx="1.69"/><rect width="14.589" height="3.38" x="80.848" y="51.785" fill="#D9DDEA" rx="1.69"/><rect width="14.589" height="3.38" x="106.76" y="51.785" fill="#D9DDEA" rx="1.69"/><rect width="14.589" height="3.38" x="132.671" y="51.785" fill="#D9DDEA" rx="1.69"/><rect width="9.013" height="3.38" x="158.582" y="51.785" fill="#71869D" rx="1.69"/><rect width="35.014" height="3.38" x="24.519" y="69.81" fill="#71869D" rx="1.69"/><rect width="14.589" height="3.38" x="80.848" y="69.81" fill="#D9DDEA" rx="1.69"/><rect width="14.589" height="3.38" x="106.76" y="69.81" fill="#D9DDEA" rx="1.69"/><rect width="14.589" height="3.38" x="132.671" y="69.81" fill="#D9DDEA" rx="1.69"/><rect width="9.013" height="3.38" x="158.582" y="69.81" fill="#71869D" rx="1.69"/><rect width="35.014" height="3.38" x="24.519" y="87.835" fill="#71869D" rx="1.69"/><rect width="14.589" height="3.38" x="80.848" y="87.835" fill="#D9DDEA" rx="1.69"/><rect width="14.589" height="3.38" x="106.76" y="87.835" fill="#D9DDEA" rx="1.69"/><rect width="14.589" height="3.38" x="132.671" y="87.835" fill="#D9DDEA" rx="1.69"/><rect width="9.013" height="3.38" x="158.582" y="87.835" fill="#71869D" rx="1.69"/><rect width="35.014" height="3.38" x="24.519" y="105.861" fill="#71869D" rx="1.69"/><rect width="14.589" height="3.38" x="80.848" y="105.861" fill="#D9DDEA" rx="1.69"/><rect width="14.589" height="3.38" x="106.76" y="105.861" fill="#D9DDEA" rx="1.69"/><rect width="14.589" height="3.38" x="132.671" y="105.861" fill="#D9DDEA" rx="1.69"/><rect width="9.013" height="3.38" x="158.582" y="105.861" fill="#71869D" rx="1.69"/><rect width="166.734" height="1.127" x="16.633" y="43.899" fill="#E7EAF3"/><rect width="166.734" height="1.127" x="16.633" y="61.924" fill="#E7EAF3"/><rect width="166.734" height="1.127" x="16.633" y="79.949" fill="#E7EAF3"/><rect width="166.734" height="1.127" x="16.633" y="97.975" fill="#E7EAF3"/></svg>