<svg xmlns="http://www.w3.org/2000/svg" width="200" height="144" fill="none" viewBox="0 0 200 144"><g clip-path="url(#clip0)"><path fill="#F8FAFD" d="M196 0H4C1.79086 0 0 1.79086 0 4V140C0 142.209 1.79086 144 4 144H196C198.209 144 200 142.209 200 140V4C200 1.79086 198.209 0 196 0Z"/><rect width="16" height="6" x="16" y="16" fill="#71869D" rx="3"/><rect width="16" height="6" x="36" y="16" fill="#A7B4C3" rx="3"/><rect width="16" height="6" x="56" y="16" fill="#A7B4C3" rx="3"/><rect width="16" height="6" x="76" y="16" fill="#A7B4C3" rx="3"/><rect width="16" height="6" x="96" y="16" fill="#A7B4C3" rx="3"/><rect width="16" height="6" x="116" y="16" fill="#A7B4C3" rx="3"/><rect width="168" height="70" x="16" y="39" fill="#71869D" rx="4"/><rect width="168" height="30" x="16" y="119" fill="#D9DDEA" rx="4"/></g><defs><clipPath id="clip0"><rect width="200" height="144" fill="#fff"/></clipPath></defs></svg>