<svg xmlns="http://www.w3.org/2000/svg" width="200" height="144" fill="none" viewBox="0 0 200 144"><path fill="#F8FAFD" d="M196 0H4C1.79086 0 0 1.79086 0 4V140C0 142.209 1.79086 144 4 144H196C198.209 144 200 142.209 200 140V4C200 1.79086 198.209 0 196 0Z"/><rect width="156" height="90" x="21.5" y="26.5" fill="#fff" stroke="#E7EAF3" rx="3.5"/><rect width="156" height="1" x="22" y="48" fill="#E7EAF3"/><rect width="156" height="1" x="22" y="71" fill="#E7EAF3"/><rect width="156" height="1" x="21" y="94" fill="#E7EAF3"/><rect width="1" height="89" x="43" y="27" fill="#E7EAF3"/><rect width="1" height="89" x="65" y="27" fill="#E7EAF3"/><rect width="1" height="89" x="88" y="27" fill="#E7EAF3"/><rect width="1" height="89" x="110" y="27" fill="#E7EAF3"/><rect width="1" height="89" x="133" y="27" fill="#E7EAF3"/><rect width="1" height="89" x="155" y="27" fill="#E7EAF3"/><rect width="4" height="4" x="47" y="52" fill="#DDE0EC" rx="2"/><rect width="10" height="4" x="27" y="35" fill="#DDE0EC" rx="2"/><rect width="10" height="4" x="50" y="35" fill="#DDE0EC" rx="2"/><rect width="10" height="4" x="72" y="35" fill="#DDE0EC" rx="2"/><rect width="10" height="4" x="95" y="35" fill="#DDE0EC" rx="2"/><rect width="10" height="4" x="117" y="35" fill="#DDE0EC" rx="2"/><rect width="10" height="4" x="140" y="35" fill="#DDE0EC" rx="2"/><rect width="10" height="4" x="162" y="35" fill="#DDE0EC" rx="2"/><rect width="4" height="4" x="54" y="52" fill="#71869D" rx="2"/><rect width="4" height="4" x="92" y="75" fill="#71869D" rx="2"/><rect width="4" height="4" x="69" y="98" fill="#71869D" rx="2"/><rect width="4" height="4" x="99" y="75" fill="#DDE0EC" rx="2"/><rect width="4" height="4" x="92" y="83" fill="#DDE0EC" rx="2"/><rect width="4" height="4" x="137" y="98" fill="#DDE0EC" rx="2"/></svg>