<svg xmlns="http://www.w3.org/2000/svg" width="200" height="144" fill="none" viewBox="0 0 200 144"><g clip-path="url(#clip0)"><path fill="#F8FAFD" d="M196 0H4C1.79086 0 0 1.79086 0 4V140C0 142.209 1.79086 144 4 144H196C198.209 144 200 142.209 200 140V4C200 1.79086 198.209 0 196 0Z"/><rect width="45" height="32" x="27" y="56" fill="#D9DDEA" rx="4"/><rect width="45" height="32" x="-23" y="56" fill="#D9DDEA" rx="4"/><rect width="45" height="32" x="77" y="56" fill="#D9DDEA" rx="4"/><rect width="45" height="32" x="127" y="56" fill="#D9DDEA" rx="4"/><rect width="45" height="32" x="177" y="56" fill="#D9DDEA" rx="4"/></g><defs><clipPath id="clip0"><rect width="200" height="144" fill="#fff" rx="4"/></clipPath></defs></svg>