<svg xmlns="http://www.w3.org/2000/svg" width="200" height="144" fill="none" viewBox="0 0 200 144"><g clip-path="url(#clip0)"><path fill="#F8FAFD" d="M196 0H4C1.79086 0 0 1.79086 0 4V140C0 142.209 1.79086 144 4 144H196C198.209 144 200 142.209 200 140V4C200 1.79086 198.209 0 196 0Z"/><path fill="#9CAABA" fill-opacity=".5" d="M196 0H4C1.79086 0 0 1.79086 0 4V140C0 142.209 1.79086 144 4 144H196C198.209 144 200 142.209 200 140V4C200 1.79086 198.209 0 196 0Z"/><g filter="url(#filter0_d)"><path fill="#fff" d="M130 0H196C198.209 0 200 1.79086 200 4V140C200 142.209 198.209 144 196 144H130V0Z"/></g><rect width="31" height="10" x="136" y="15" fill="#71869D" fill-opacity=".7" rx="5"/><rect width="54" height="6" x="138" y="58" fill="#D9DDEA" rx="3"/><rect width="54" height="6" x="138" y="70" fill="#D9DDEA" rx="3"/><rect width="54" height="6" x="138" y="82" fill="#D9DDEA" rx="3"/></g><defs><filter id="filter0_d" width="118" height="192" x="106" y="-19" color-interpolation-filters="sRGB" filterUnits="userSpaceOnUse"><feFlood flood-opacity="0" result="BackgroundImageFix"/><feColorMatrix in="SourceAlpha" type="matrix" values="0 0 0 0 0 0 0 0 0 0 0 0 0 0 0 0 0 0 127 0"/><feOffset dy="5"/><feGaussianBlur stdDeviation="12"/><feColorMatrix type="matrix" values="0 0 0 0 0.54902 0 0 0 0 0.596078 0 0 0 0 0.643137 0 0 0 0.125 0"/><feBlend in2="BackgroundImageFix" mode="normal" result="effect1_dropShadow"/><feBlend in="SourceGraphic" in2="effect1_dropShadow" mode="normal" result="shape"/></filter><clipPath id="clip0"><rect width="200" height="144" fill="#fff"/></clipPath></defs></svg>