<svg xmlns="http://www.w3.org/2000/svg" width="200" height="144" fill="none" viewBox="0 0 200 144"><path fill="#F8FAFD" d="M196 0H4C1.79086 0 0 1.79086 0 4V140C0 142.209 1.79086 144 4 144H196C198.209 144 200 142.209 200 140V4C200 1.79086 198.209 0 196 0Z"/><rect width="30" height="9" x="25" y="32" fill="#71869D" rx="4.5"/><rect width="30" height="9" x="71" y="32" fill="#71869D" rx="4.5"/><rect width="30" height="9" x="117" y="32" fill="#71869D" rx="4.5"/><rect width="152" height="6" x="25" y="63" fill="#D9DDEA" rx="3"/><rect width="152" height="6" x="25" y="82" fill="#D9DDEA" rx="3"/><rect width="152" height="6" x="25" y="101" fill="#D9DDEA" rx="3"/><rect width="165" height="1" x="18" y="51" fill="#D9DDEA"/><rect width="165" height="102" x="17.5" y="20.5" stroke="#D9DDEA" rx="3.5"/></svg>