<svg xmlns="http://www.w3.org/2000/svg" width="200" height="144" fill="none" viewBox="0 0 200 144"><g clip-path="url(#clip0)"><path fill="#F8FAFD" d="M196 0H4C1.79086 0 0 1.79086 0 4V140C0 142.209 1.79086 144 4 144H196C198.209 144 200 142.209 200 140V4C200 1.79086 198.209 0 196 0Z"/><g filter="url(#filter0_d)"><path fill="#fff" d="M167.2 42H32.8C31.2536 42 30 43.0944 30 44.4444V127.556C30 128.906 31.2536 130 32.8 130H167.2C168.746 130 170 128.906 170 127.556V44.4444C170 43.0944 168.746 42 167.2 42Z"/></g><rect width="128" height="24" x="36" y="48" fill="#E5E9F2" fill-opacity=".6" rx="4"/><rect width="86" height="8" x="57" y="56" fill="#D9DDEA" rx="4"/><rect width="86" height="8" x="57" y="84" fill="#D9DDEA" rx="4"/><rect width="86" height="8" x="57" y="106" fill="#D9DDEA" rx="4"/><rect width="139" height="19" x="30.5" y="15.5" fill="#fff" stroke="#D9DDEA" rx="3.5"/></g><defs><filter id="filter0_d" width="172" height="120" x="14" y="34" color-interpolation-filters="sRGB" filterUnits="userSpaceOnUse"><feFlood flood-opacity="0" result="BackgroundImageFix"/><feColorMatrix in="SourceAlpha" type="matrix" values="0 0 0 0 0 0 0 0 0 0 0 0 0 0 0 0 0 0 127 0"/><feOffset dy="8"/><feGaussianBlur stdDeviation="8"/><feColorMatrix type="matrix" values="0 0 0 0 0.741176 0 0 0 0 0.772549 0 0 0 0 0.819608 0 0 0 0.3 0"/><feBlend in2="BackgroundImageFix" mode="normal" result="effect1_dropShadow"/><feBlend in="SourceGraphic" in2="effect1_dropShadow" mode="normal" result="shape"/></filter><clipPath id="clip0"><rect width="200" height="144" fill="#fff"/></clipPath></defs></svg>