<svg xmlns="http://www.w3.org/2000/svg" width="200" height="144" fill="none" viewBox="0 0 200 144"><path fill="#F8FAFD" d="M196 0H4C1.79086 0 0 1.79086 0 4V140C0 142.209 1.79086 144 4 144H196C198.209 144 200 142.209 200 140V4C200 1.79086 198.209 0 196 0Z"/><rect width="80" height="8" x="74" y="68" fill="#D9DDEA" rx="4"/><path fill="#71869D" fill-rule="evenodd" d="M47 72C47 68.134 50.134 65 54 65C57.866 65 61 68.134 61 72C61 75.866 57.866 79 54 79C50.134 79 47 75.866 47 72Z" clip-rule="evenodd"/></svg>