<svg xmlns="http://www.w3.org/2000/svg" width="263" height="337" fill="none" viewBox="0 0 263 337"><path stroke="#BAC3D7" stroke-linecap="round" stroke-width="5" d="M134 163L40 167"/><path stroke="#BAC3D7" stroke-linecap="round" stroke-width="5" d="M135 163L259 174"/><path stroke="#BAC3D7" stroke-linecap="round" stroke-width="5" d="M260 174L235 290"/><path stroke="#BAC3D7" stroke-linecap="round" stroke-width="5" d="M235 290L132 308"/><path stroke="#BAC3D7" stroke-linecap="round" stroke-width="5" d="M132 307V184"/><path stroke="#BAC3D7" stroke-linecap="round" stroke-width="5" d="M132 185L259 175"/><path stroke="#BAC3D7" stroke-linecap="round" stroke-width="5" d="M132 185L40 167"/><path stroke="#BAC3D7" stroke-linecap="round" stroke-width="5" d="M38 167L44 259"/><path stroke="#BAC3D7" stroke-linecap="round" stroke-width="5" d="M44 259L132 308"/><path stroke="#BAC3D7" stroke-linecap="round" stroke-width="5" d="M133 163V183"/><rect width="37.243" height="19.996" x="178.212" y="212.881" stroke="#BAC3D7" stroke-width="3" rx="8.5" transform="rotate(-3.53924 178.212 212.881)"/><path stroke="#BAC3D7" stroke-linecap="round" stroke-width="5" d="M3 30C20.6289 58.0482 68.8144 111.175 120.526 99.2957L193 45.839"/><path stroke="#BAC3D7" stroke-linecap="round" stroke-width="5" d="M3 30L85 3"/><path stroke="#BAC3D7" stroke-linecap="round" stroke-width="5" d="M85 3C100.382 17 143.516 45 193 45"/><path stroke="#BAC3D7" stroke-linecap="round" stroke-width="5" d="M49 44C56.1111 42.3333 72.4667 37 81 29"/><path stroke="#BAC3D7" stroke-linecap="round" stroke-width="5" d="M70 62C74.4444 61 84.6667 57.2 90 50"/><path stroke="#BAC3D7" stroke-linecap="round" stroke-width="5" d="M94 75C99.6667 74 114.6 69.4 121 55"/><path fill="#BAC3D7" fill-opacity=".3" d="M131.281 334L41.5 260.5L131.5 310.5L237.5 292L247.5 293.5L131.281 334Z"/></svg>