<svg xmlns="http://www.w3.org/2000/svg" width="200" height="144" fill="none" viewBox="0 0 200 144"><path fill="#1E2022" d="M196 0H4C1.79086 0 0 1.79086 0 4V140C0 142.209 1.79086 144 4 144H196C198.209 144 200 142.209 200 140V4C200 1.79086 198.209 0 196 0Z"/><rect width="119" height="85" x="40.5" y="29.5" stroke="#D9DDEA" rx="3.5"/><rect width="80" height="8" x="60" y="39" fill="#D9DDEA" rx="4"/><rect width="80" height="8" x="60" y="68" fill="#D9DDEA" rx="4"/><rect width="80" height="8" x="60" y="97" fill="#D9DDEA" rx="4"/><rect width="120" height="1" x="40" y="57" fill="#D9DDEA"/><rect width="120" height="1" x="40" y="86" fill="#D9DDEA"/></svg>