<svg xmlns="http://www.w3.org/2000/svg" width="200" height="144" fill="none" viewBox="0 0 200 144"><path fill="#1E2022" d="M196 0H4C1.79086 0 0 1.79086 0 4V140C0 142.209 1.79086 144 4 144H196C198.209 144 200 142.209 200 140V4C200 1.79086 198.209 0 196 0Z"/><rect width="166.541" height="69.541" x="16.73" y="36.73" stroke="#E7EAF3" stroke-width="1.459" rx="5.106"/><path fill="#71869D" d="M0 4C0 1.79086 1.79086 0 4 0H196C198.209 0 200 1.79086 200 4V18H0V4Z"/><rect width="14.589" height="3.38" x="25.013" y="6.76" fill="#D9DDEA" rx="1.69"/><rect width="14.589" height="3.38" x="81.342" y="6.76" fill="#D9DDEA" rx="1.69"/><rect width="14.589" height="3.38" x="107.253" y="6.76" fill="#D9DDEA" rx="1.69"/><rect width="14.589" height="3.38" x="133.165" y="6.76" fill="#D9DDEA" rx="1.69"/><rect width="35.014" height="3.38" x="24.519" y="42.785" fill="#D9DDEA" rx="1.69"/><rect width="14.589" height="3.38" x="80.848" y="42.785" fill="#D9DDEA" rx="1.69"/><rect width="14.589" height="3.38" x="106.76" y="42.785" fill="#D9DDEA" rx="1.69"/><rect width="14.589" height="3.38" x="132.671" y="42.785" fill="#D9DDEA" rx="1.69"/><rect width="9.013" height="3.38" x="158.582" y="42.785" fill="#D9DDEA" rx="1.69"/><rect width="35.014" height="3.38" x="24.519" y="60.81" fill="#D9DDEA" rx="1.69"/><rect width="14.589" height="3.38" x="80.848" y="60.81" fill="#D9DDEA" rx="1.69"/><rect width="14.589" height="3.38" x="106.76" y="60.81" fill="#D9DDEA" rx="1.69"/><rect width="14.589" height="3.38" x="132.671" y="60.81" fill="#D9DDEA" rx="1.69"/><rect width="9.013" height="3.38" x="158.582" y="60.81" fill="#D9DDEA" rx="1.69"/><rect width="35.014" height="3.38" x="24.519" y="78.835" fill="#D9DDEA" rx="1.69"/><rect width="14.589" height="3.38" x="80.848" y="78.835" fill="#D9DDEA" rx="1.69"/><rect width="14.589" height="3.38" x="106.76" y="78.835" fill="#D9DDEA" rx="1.69"/><rect width="14.589" height="3.38" x="132.671" y="78.835" fill="#D9DDEA" rx="1.69"/><rect width="9.013" height="3.38" x="158.582" y="78.835" fill="#D9DDEA" rx="1.69"/><rect width="35.014" height="3.38" x="24.519" y="96.861" fill="#D9DDEA" rx="1.69"/><rect width="14.589" height="3.38" x="80.848" y="96.861" fill="#D9DDEA" rx="1.69"/><rect width="14.589" height="3.38" x="106.76" y="96.861" fill="#D9DDEA" rx="1.69"/><rect width="14.589" height="3.38" x="132.671" y="96.861" fill="#D9DDEA" rx="1.69"/><rect width="9.013" height="3.38" x="158.582" y="96.861" fill="#D9DDEA" rx="1.69"/><rect width="166.734" height="1.127" x="16.633" y="52.924" fill="#E7EAF3"/><rect width="166.734" height="1.127" x="16.633" y="70.949" fill="#E7EAF3"/><rect width="166.734" height="1.127" x="16.633" y="88.975" fill="#E7EAF3"/></svg>