<svg xmlns="http://www.w3.org/2000/svg" width="200" height="144" fill="none" viewBox="0 0 200 144"><path fill="#1E2022" d="M196 0H4C1.79086 0 0 1.79086 0 4V140C0 142.209 1.79086 144 4 144H196C198.209 144 200 142.209 200 140V4C200 1.79086 198.209 0 196 0Z"/><rect width="110" height="2" x="74" y="53" fill="#D9DDEA" fill-opacity=".6" rx="1"/><rect width="48" height="8" x="16" y="50" fill="#71869D" rx="4"/><rect width="50" height="2" x="16" y="89" fill="#D9DDEA" fill-opacity=".6" rx="1"/><rect width="50" height="2" x="134" y="89" fill="#D9DDEA" fill-opacity=".6" rx="1"/><rect width="48" height="8" x="76" y="86" fill="#71869D" rx="4"/><rect width="110" height="2" x="16" y="71" fill="#D9DDEA" fill-opacity=".6" rx="1"/><rect width="48" height="8" x="136" y="68" fill="#71869D" rx="4"/></svg>