<svg xmlns="http://www.w3.org/2000/svg" width="200" height="144" fill="none" viewBox="0 0 200 144"><path fill="#1E2022" d="M196 0H4C1.79086 0 0 1.79086 0 4V140C0 142.209 1.79086 144 4 144H196C198.209 144 200 142.209 200 140V4C200 1.79086 198.209 0 196 0Z"/><rect width="159" height="51" x="20.5" y="46.5" stroke="#D9DDEA" rx="3.5"/><rect width="59" height="7" x="73" y="59.811" fill="#D9DDEA" rx="3.5"/><rect width="94" height="7" x="73" y="77" fill="#D9DDEA" rx="3.5"/><path fill="#71869D" fill-rule="evenodd" d="M46.1172 59.6853C45.9302 59.3793 45.4826 59.3885 45.3084 59.7021L36.7198 75.1615C36.5464 75.4736 36.7721 75.8571 37.1291 75.8571H55.1651C55.5308 75.8571 55.7553 75.4567 55.5646 75.1447L46.1172 59.6853Z" clip-rule="evenodd"/><rect width="1.873" height="6.556" x="44.762" y="64.619" fill="#fff" rx=".468"/><rect width="1.873" height="1.873" x="44.762" y="72.111" fill="#fff" rx=".468"/></svg>