<svg xmlns="http://www.w3.org/2000/svg" width="200" height="144" fill="none" viewBox="0 0 200 144"><path fill="#1E2022" d="M196 0H4C1.79086 0 0 1.79086 0 4V140C0 142.209 1.79086 144 4 144H196C198.209 144 200 142.209 200 140V4C200 1.79086 198.209 0 196 0Z"/><rect width="4.889" height="9.778" x="36.444" y="84.223" fill="#D9DDEA"/><rect width="4.889" height="19.556" x="48.667" y="74.444" fill="#D9DDEA"/><rect width="4.889" height="26.889" x="60.889" y="67.111" fill="#D9DDEA"/><rect width="4.889" height="36.667" x="73.111" y="57.333" fill="#71869D"/><rect width="4.889" height="44" x="85.333" y="50" fill="#71869D"/><rect width="4.889" height="29.333" x="97.555" y="64.667" fill="#71869D"/><rect width="4.889" height="19.556" x="109.778" y="74.444" fill="#71869D"/><rect width="4.889" height="31.778" x="122" y="62.223" fill="#71869D"/><rect width="4.889" height="41.556" x="134.222" y="52.444" fill="#D9DDEA"/><rect width="4.889" height="36.667" x="146.444" y="57.333" fill="#D9DDEA"/><rect width="4.889" height="17.111" x="158.667" y="76.889" fill="#D9DDEA"/></svg>