<svg xmlns="http://www.w3.org/2000/svg" width="200" height="144" fill="none" viewBox="0 0 200 144"><g clip-path="url(#clip0_23:151)"><path fill="#1E2022" d="M196 0H4C1.79086 0 0 1.79086 0 4V140C0 142.209 1.79086 144 4 144H196C198.209 144 200 142.209 200 140V4C200 1.79086 198.209 0 196 0Z"/><g filter="url(#filter0_d_23:151)"><rect width="160" height="104" x="20" y="20" fill="#fff" rx="4"/></g><rect width="71" height="10" x="33" y="33" fill="#71869D" fill-opacity=".7" rx="5"/><rect width="21" height="8" x="146" y="109" fill="#71869D" rx="4"/><rect width="21" height="8" x="119" y="109" fill="#D9DDEA" rx="4"/><rect width="134" height="6" x="33" y="58" fill="#D9DDEA" rx="3"/><rect width="134" height="6" x="33" y="70" fill="#D9DDEA" rx="3"/><rect width="134" height="6" x="33" y="82" fill="#D9DDEA" rx="3"/></g><defs><filter id="filter0_d_23:151" width="208" height="152" x="-4" y="1" color-interpolation-filters="sRGB" filterUnits="userSpaceOnUse"><feFlood flood-opacity="0" result="BackgroundImageFix"/><feColorMatrix in="SourceAlpha" result="hardAlpha" type="matrix" values="0 0 0 0 0 0 0 0 0 0 0 0 0 0 0 0 0 0 127 0"/><feOffset dy="5"/><feGaussianBlur stdDeviation="12"/><feColorMatrix type="matrix" values="0 0 0 0 0.54902 0 0 0 0 0.596078 0 0 0 0 0.643137 0 0 0 0.125 0"/><feBlend in2="BackgroundImageFix" mode="normal" result="effect1_dropShadow_23:151"/><feBlend in="SourceGraphic" in2="effect1_dropShadow_23:151" mode="normal" result="shape"/></filter><clipPath id="clip0_23:151"><rect width="200" height="144" fill="#fff"/></clipPath></defs></svg>