<svg xmlns="http://www.w3.org/2000/svg" width="200" height="144" fill="none" viewBox="0 0 200 144"><path fill="#1E2022" d="M196 0H4C1.79086 0 0 1.79086 0 4V140C0 142.209 1.79086 144 4 144H196C198.209 144 200 142.209 200 140V4C200 1.79086 198.209 0 196 0Z"/><path fill="#3D4145" fill-opacity=".5" d="M196 0H4C1.79086 0 0 1.79086 0 4V140C0 142.209 1.79086 144 4 144H196C198.209 144 200 142.209 200 140V4C200 1.79086 198.209 0 196 0Z"/><rect width="160" height="104" x="20" y="20" fill="#1E2022" rx="4"/><rect width="71" height="10" x="33" y="33" fill="#71869D" fill-opacity=".7" rx="5"/><rect width="21" height="8" x="146" y="109" fill="#71869D" rx="4"/><rect width="21" height="8" x="119" y="109" fill="#D9DDEA" rx="4"/><rect width="134" height="6" x="33" y="58" fill="#D9DDEA" rx="3"/><rect width="134" height="6" x="33" y="70" fill="#D9DDEA" rx="3"/><rect width="134" height="6" x="33" y="82" fill="#D9DDEA" rx="3"/></svg>