<svg xmlns="http://www.w3.org/2000/svg" width="200" height="144" fill="none" viewBox="0 0 200 144"><path fill="#1E2022" d="M196 0H4C1.79086 0 0 1.79086 0 4V140C0 142.209 1.79086 144 4 144H196C198.209 144 200 142.209 200 140V4C200 1.79086 198.209 0 196 0Z"/><rect width="76.911" height="5.805" x="51" y="42" fill="#D9DDEA" rx="2.902"/><rect width="97.227" height="5.805" x="51" y="55.06" fill="#D9DDEA" rx="2.902"/><rect width="30" height="6" x="51" y="101" fill="#D9DDEA" rx="2"/><rect width="30" height="6" x="87" y="101" fill="#D9DDEA" rx="2"/><rect width="121" height="83" x="39.5" y="30.5" stroke="#D9DDEA" rx="3.5"/><rect width="122" height="1" x="39" y="93" fill="#D9DDEA"/></svg>