<svg xmlns="http://www.w3.org/2000/svg" width="200" height="144" fill="none" viewBox="0 0 200 144"><rect width="167" height="123" x="16.5" y="10.5" fill="#1E2022" stroke="#4B5055" rx="3.5"/><path fill="#25282A" d="M17 14C17 12.3431 18.3431 11 20 11H180C181.657 11 183 12.3431 183 14V20H17V14Z"/><circle cx="21.5" cy="15.5" r="1.5" fill="#ED6B5F"/><circle cx="27.5" cy="15.5" r="1.5" fill="#F7D289"/><circle cx="33.5" cy="15.5" r="1.5" fill="#61C454"/><rect width="166" height="31" x="17" y="29" fill="#17181A"/><rect width="166" height="1" x="17" y="28" fill="#4B5055"/><rect width="3" height="3" x="172" y="23" fill="#4B5055" rx="1.5"/><rect width="3" height="3" x="166" y="23" fill="#4B5055" rx="1.5"/><rect width="3" height="3" x="160" y="23" fill="#4B5055" rx="1.5"/><rect width="3" height="3" x="154" y="23" fill="#4B5055" rx="1.5"/><rect width="166" height="1" x="17" y="20" fill="#4B5055"/><rect width="13" height="3" x="25" y="23" fill="#fff" rx="1.5"/><g filter="url(#filter0_d_129:2)"><rect width="150" height="93" x="25" y="35" fill="#25282A" rx="3"/></g><defs><filter id="filter0_d_129:2" width="160" height="103" x="20" y="33" color-interpolation-filters="sRGB" filterUnits="userSpaceOnUse"><feFlood flood-opacity="0" result="BackgroundImageFix"/><feColorMatrix in="SourceAlpha" result="hardAlpha" type="matrix" values="0 0 0 0 0 0 0 0 0 0 0 0 0 0 0 0 0 0 127 0"/><feOffset dy="3"/><feGaussianBlur stdDeviation="2.5"/><feColorMatrix type="matrix" values="0 0 0 0 0.54902 0 0 0 0 0.596078 0 0 0 0 0.643137 0 0 0 0.125 0"/><feBlend in2="BackgroundImageFix" mode="normal" result="effect1_dropShadow_129:2"/><feBlend in="SourceGraphic" in2="effect1_dropShadow_129:2" mode="normal" result="shape"/></filter></defs></svg>