<svg xmlns="http://www.w3.org/2000/svg" width="200" height="144" fill="none" viewBox="0 0 200 144"><rect width="167" height="123" x="16.5" y="10.5" fill="#1E2022" stroke="#4B5055" rx="3.5"/><path fill="#25282A" d="M17 14C17 12.3431 18.3431 11 20 11H180C181.657 11 183 12.3431 183 14V20H17V14Z"/><circle cx="21.5" cy="15.5" r="1.5" fill="#ED6B5F"/><circle cx="27.5" cy="15.5" r="1.5" fill="#F7D289"/><circle cx="33.5" cy="15.5" r="1.5" fill="#61C454"/><path fill="#25282A" d="M17 21H61V133H20C18.3431 133 17 131.657 17 130V21Z"/><rect width="121" height="7" x="62" y="21" fill="#25282A"/><rect width="17" height="3" x="31" y="70" fill="#4B5055" rx="1.5"/><rect width="10" height="3" x="31" y="80" fill="#4B5055" rx="1.5"/><rect width="16" height="3" x="31" y="90" fill="#4B5055" rx="1.5"/><rect width="22" height="3" x="31" y="100" fill="#4B5055" rx="1.5"/><rect width="44" height="1" x="17" y="118" fill="#4B5055"/><rect width="4" height="4" x="27" y="124" fill="#4B5055" rx="2"/><rect width="4" height="4" x="37" y="124" fill="#4B5055" rx="2"/><rect width="4" height="4" x="47" y="124" fill="#4B5055" rx="2"/><rect width="3" height="3" x="172" y="23" fill="#4B5055" rx="1.5"/><rect width="3" height="3" x="166" y="23" fill="#4B5055" rx="1.5"/><rect width="3" height="3" x="160" y="23" fill="#4B5055" rx="1.5"/><rect width="3" height="3" x="154" y="23" fill="#4B5055" rx="1.5"/><rect width="17" height="3" x="70" y="23" fill="#4B5055" rx="1.5"/><rect width="166" height="1" x="17" y="20" fill="#4B5055"/><rect width="121" height="1" x="62" y="28" fill="#4B5055"/><rect width="13" height="5" x="25" y="31" fill="#fff" rx="2.5"/><rect width="1" height="112" x="61" y="21" fill="#4B5055"/><rect width="21.046" height="4.708" x="31.092" y="50.754" fill="#3D4145" fill-opacity=".7" rx="1.108"/><rect width="9.692" height="1.938" x="32.477" y="52.139" fill="#4B5055" rx=".969"/><rect width="21.046" height="3.046" x="31.092" y="57.954" fill="#4B5055" rx="1.523"/><rect width="21.046" height="3.877" x="31.092" y="43" fill="#fff" rx="1.938"/><rect width="3.877" height="3.877" x="25" y="43" fill="#fff" rx="1.938"/><rect width="3" height="3" x="25" y="70" fill="#4B5055" rx="1.5"/><rect width="3" height="3" x="25" y="80" fill="#4B5055" rx="1.5"/><rect width="3" height="3" x="25" y="90" fill="#4B5055" rx="1.5"/><rect width="3" height="3" x="25" y="100" fill="#4B5055" rx="1.5"/><rect width=".831" height="10.246" x="26.662" y="50.754" fill="#4B5055"/></svg>