<svg xmlns="http://www.w3.org/2000/svg" width="200" height="144" fill="none" viewBox="0 0 200 144"><path fill="#1E2022" stroke="#4B5055" d="M180 10.5H20C18.067 10.5 16.5 12.067 16.5 14V130C16.5 131.933 18.067 133.5 20 133.5H180C181.933 133.5 183.5 131.933 183.5 130V14C183.5 12.067 181.933 10.5 180 10.5Z"/><path fill="#25282A" d="M17 14C17 12.3431 18.3431 11 20 11H180C181.657 11 183 12.3431 183 14V20H17V14Z"/><path fill="#ED6B5F" d="M21.5 17C22.3284 17 23 16.3284 23 15.5C23 14.6716 22.3284 14 21.5 14C20.6716 14 20 14.6716 20 15.5C20 16.3284 20.6716 17 21.5 17Z"/><path fill="#F7D289" d="M27.5 17C28.3284 17 29 16.3284 29 15.5C29 14.6716 28.3284 14 27.5 14C26.6716 14 26 14.6716 26 15.5C26 16.3284 26.6716 17 27.5 17Z"/><path fill="#61C454" d="M33.5 17C34.3284 17 35 16.3284 35 15.5C35 14.6716 34.3284 14 33.5 14C32.6716 14 32 14.6716 32 15.5C32 16.3284 32.6716 17 33.5 17Z"/><path fill="#25282A" d="M17 21H41V133H18.6364C17.7326 133 17 131.657 17 130V21Z"/><path fill="#4B5055" d="M42 21H41V133H42V21Z"/><path fill="#4B5055" d="M183 20H17V21H183V20Z"/><rect width="8" height="5" x="25" y="31" fill="#fff" rx="2.5"/><rect width="4" height="4" x="27" y="44" fill="#4B5055" rx="2"/><rect width="12" height="3" x="23" y="50" fill="#4B5055" rx="1.5"/><rect width="4" height="4" x="27" y="60" fill="#4B5055" rx="2"/><rect width="12" height="3" x="23" y="66" fill="#4B5055" rx="1.5"/><rect width="4" height="4" x="27" y="77" fill="#4B5055" rx="2"/><rect width="12" height="3" x="23" y="83" fill="#4B5055" rx="1.5"/><rect width="4" height="4" x="27" y="95" fill="#4B5055" rx="2"/><rect width="12" height="3" x="23" y="101" fill="#4B5055" rx="1.5"/><rect width="4" height="4" x="27" y="114" fill="#4B5055" rx="2"/><rect width="12" height="3" x="23" y="120" fill="#4B5055" rx="1.5"/></svg>