<svg xmlns="http://www.w3.org/2000/svg" width="200" height="144" fill="none" viewBox="0 0 200 144"><rect width="167" height="123" x="16.5" y="10.5" fill="#1E2022" stroke="#4B5055" rx="3.5"/><path fill="#25282A" d="M17 14C17 12.3431 18.3431 11 20 11H180C181.657 11 183 12.3431 183 14V20H17V14Z"/><circle cx="21.5" cy="15.5" r="1.5" fill="#ED6B5F"/><circle cx="27.5" cy="15.5" r="1.5" fill="#F7D289"/><circle cx="33.5" cy="15.5" r="1.5" fill="#61C454"/><rect width="166" height="31" x="17" y="29" fill="#17181A"/><rect width="35" height="93" x="25" y="35" fill="#25282A" rx="3"/><rect width="166" height="1" x="17" y="28" fill="#4B5055"/><rect width="16" height="3" x="31" y="51" fill="#4B5055" rx="1.5"/><rect width="18" height="3" x="31" y="60" fill="#4B5055" rx="1.5"/><rect width="20" height="3" x="31" y="70" fill="#4B5055" rx="1.5"/><rect width="13" height="3" x="31" y="79" fill="#4B5055" rx="1.5"/><rect width="20" height="3" x="31" y="89" fill="#4B5055" rx="1.5"/><rect width="35" height="1" x="25" y="113" fill="#4B5055"/><rect width="166" height="7" x="17" y="21" fill="#25282A"/><rect width="3" height="3" x="33" y="119" fill="#4B5055" rx="1.5"/><rect width="3" height="3" x="41" y="119" fill="#4B5055" rx="1.5"/><rect width="3" height="3" x="49" y="119" fill="#4B5055" rx="1.5"/><rect width="20" height="3" x="31" y="43" fill="#4B5055" rx="1.5"/><rect width="3" height="3" x="172" y="23" fill="#4B5055" rx="1.5"/><rect width="3" height="3" x="166" y="23" fill="#4B5055" rx="1.5"/><rect width="3" height="3" x="160" y="23" fill="#4B5055" rx="1.5"/><rect width="3" height="3" x="154" y="23" fill="#4B5055" rx="1.5"/><rect width="17" height="3" x="49" y="23" fill="#4B5055" rx="1.5"/><rect width="166" height="1" x="17" y="20" fill="#4B5055"/><rect width="13" height="3" x="25" y="23" fill="#fff" rx="1.5"/><rect width="110" height="93" x="65" y="35" fill="#25282A" rx="3"/></svg>