<svg xmlns="http://www.w3.org/2000/svg" width="200" height="144" fill="none" viewBox="0 0 200 144"><rect width="167" height="123" x="16.5" y="10.5" fill="#1E2022" stroke="#4B5055" rx="3.5"/><path fill="#25282A" d="M17 14C17 12.3431 18.3431 11 20 11H180C181.657 11 183 12.3431 183 14V20H17V14Z"/><circle cx="21.5" cy="15.5" r="1.5" fill="#ED6B5F"/><circle cx="27.5" cy="15.5" r="1.5" fill="#F7D289"/><circle cx="33.5" cy="15.5" r="1.5" fill="#61C454"/><path fill="#25282A" d="M17 21H31V133H20C18.3431 133 17 131.657 17 130V21Z"/><rect width="4" height="4" x="22" y="56" fill="#4B5055" rx="2"/><rect width="4" height="4" x="22" y="65" fill="#4B5055" rx="2"/><rect width="4" height="4" x="22" y="75" fill="#4B5055" rx="2"/><rect width="4" height="4" x="22" y="85" fill="#4B5055" rx="2"/><rect width="4" height="4" x="22" y="95" fill="#4B5055" rx="2"/><rect width="14" height="1" x="17" y="118" fill="#4B5055"/><rect width="4" height="4" x="22" y="124" fill="#4B5055" rx="2"/><rect width="4" height="4" x="22" y="47" fill="#4B5055" rx="2"/><rect width="4" height="4" x="22" y="38" fill="#4B5055" rx="2"/><rect width="8" height="5" x="20" y="24" fill="#fff" rx="2.5"/><rect width="166" height="1" x="17" y="20" fill="#4B5055"/><rect width="1" height="112" x="31" y="21" fill="#4B5055"/></svg>