<svg xmlns="http://www.w3.org/2000/svg" width="200" height="144" fill="none" viewBox="0 0 200 144"><rect width="167" height="123" x="16.5" y="10.5" fill="#F5F6F9" stroke="#E7EAF3" rx="3.5"/><path fill="#fff" d="M17 14C17 12.3431 18.3431 11 20 11H180C181.657 11 183 12.3431 183 14V20H17V14Z"/><circle cx="21.5" cy="15.5" r="1.5" fill="#ED6B5F"/><circle cx="27.5" cy="15.5" r="1.5" fill="#F7D289"/><circle cx="33.5" cy="15.5" r="1.5" fill="#61C454"/><path fill="#fff" d="M17 21H61V133H20C18.3431 133 17 131.657 17 130V21Z"/><rect width="121" height="7" x="62" y="21" fill="#fff"/><rect width="15" height="3" x="31" y="61" fill="#D9DDEA" rx="1.5"/><rect width="17" height="3" x="31" y="70" fill="#D9DDEA" rx="1.5"/><rect width="10" height="3" x="31" y="80" fill="#D9DDEA" rx="1.5"/><rect width="10" height="3" x="31" y="90" fill="#D9DDEA" rx="1.5"/><rect width="22" height="3" x="31" y="100" fill="#D9DDEA" rx="1.5"/><rect width="44" height="1" x="17" y="118" fill="#D9DDEA"/><rect width="4" height="4" x="27" y="124" fill="#D9DDEA" rx="2"/><rect width="4" height="4" x="37" y="124" fill="#D9DDEA" rx="2"/><rect width="4" height="4" x="47" y="124" fill="#D9DDEA" rx="2"/><rect width="3" height="3" x="172" y="23" fill="#D9DDEA" rx="1.5"/><rect width="3" height="3" x="166" y="23" fill="#D9DDEA" rx="1.5"/><rect width="3" height="3" x="160" y="23" fill="#D9DDEA" rx="1.5"/><rect width="3" height="3" x="154" y="23" fill="#D9DDEA" rx="1.5"/><rect width="17" height="3" x="70" y="23" fill="#D9DDEA" rx="1.5"/><rect width="166" height="1" x="17" y="20" fill="#EBEDF5"/><rect width="121" height="1" x="62" y="28" fill="#EBEDF5"/><rect width="13" height="5" x="25" y="31" fill="#377DFF" rx="2.5"/><rect width="1" height="112" x="61" y="21" fill="#E7EAF3"/><rect width="18" height="2" x="31" y="52" fill="#377DFF" rx="1"/><rect width="21" height="3" x="31" y="45" fill="#377DFF" rx="1.5"/><rect width="3.368" height="3.368" x="25" y="45" fill="#377DFF" rx="1.684"/><rect width="3" height="3" x="25" y="61" fill="#D9DDEA" rx="1.5"/><rect width="3" height="3" x="25" y="70" fill="#D9DDEA" rx="1.5"/><rect width="3" height="3" x="25" y="80" fill="#D9DDEA" rx="1.5"/><rect width="3" height="3" x="25" y="90" fill="#D9DDEA" rx="1.5"/><rect width="3" height="3" x="25" y="100" fill="#D9DDEA" rx="1.5"/><rect width="1" height="6" x="17" y="44" fill="#377DFF"/></svg>