<svg xmlns="http://www.w3.org/2000/svg" width="200" height="144" fill="none" viewBox="0 0 200 144"><rect width="167" height="123" x="16.5" y="10.5" fill="#F5F6F9" stroke="#E7EAF3" rx="3.5"/><path fill="#fff" d="M17 14C17 12.3431 18.3431 11 20 11H180C181.657 11 183 12.3431 183 14V20H17V14Z"/><circle cx="21.5" cy="15.5" r="1.5" fill="#ED6B5F"/><circle cx="27.5" cy="15.5" r="1.5" fill="#F7D289"/><circle cx="33.5" cy="15.5" r="1.5" fill="#61C454"/><rect width="166" height="7" x="17" y="28" fill="#fff"/><rect width="10" height="3" x="25" y="30" fill="#D9DDEA" rx="1.5"/><rect width="10" height="3" x="39" y="30" fill="#D9DDEA" rx="1.5"/><rect width="10" height="3" x="53" y="30" fill="#D9DDEA" rx="1.5"/><rect width="10" height="3" x="67" y="30" fill="#D9DDEA" rx="1.5"/><rect width="10" height="3" x="81" y="30" fill="#D9DDEA" rx="1.5"/><rect width="10" height="3" x="95" y="30" fill="#D9DDEA" rx="1.5"/><rect width="166" height="1" x="17" y="20" fill="#EBEDF5"/><rect width="166" height="1" x="17" y="35" fill="#EBEDF5"/><rect width="166" height="7" x="17" y="21" fill="#132144"/><rect width="3" height="3" x="173" y="23" fill="#D9DDEA" rx="1.5"/><rect width="3" height="3" x="167" y="23" fill="#D9DDEA" rx="1.5"/><rect width="3" height="3" x="161" y="23" fill="#D9DDEA" rx="1.5"/><rect width="3" height="3" x="155" y="23" fill="#D9DDEA" rx="1.5"/><rect width="17" height="3" x="45" y="23" fill="#D9DDEA" rx="1.5"/><rect width="13" height="3" x="25" y="23" fill="#fff" rx="1.5"/></svg>